<svg width="560" height="120" viewBox="0 0 560 120" xmlns="http://www.w3.org/2000/svg">
  <rect width="560" height="120" rx="20" fill="#FCE4EC"/>
  <rect x="20" y="20" width="80" height="80" rx="22" fill="#C2185B"/>
  <ellipse cx="60" cy="36" rx="10" ry="18" fill="white" opacity="0.9" transform="rotate(0 60 60)"/>
  <ellipse cx="60" cy="36" rx="10" ry="18" fill="white" opacity="0.9" transform="rotate(60 60 60)"/>
  <ellipse cx="60" cy="36" rx="10" ry="18" fill="white" opacity="0.9" transform="rotate(120 60 60)"/>
  <ellipse cx="60" cy="36" rx="10" ry="18" fill="white" opacity="0.9" transform="rotate(180 60 60)"/>
  <ellipse cx="60" cy="36" rx="10" ry="18" fill="white" opacity="0.9" transform="rotate(240 60 60)"/>
  <ellipse cx="60" cy="36" rx="10" ry="18" fill="white" opacity="0.9" transform="rotate(300 60 60)"/>
  <circle cx="60" cy="60" r="14" fill="white"/>
  <circle cx="60" cy="60" r="6" fill="#C2185B"/>
  <rect x="118" y="28" width="1.5" height="64" fill="#E8B4CC"/>
  <text x="138" y="70" font-family="Georgia, 'Times New Roman', serif" font-size="52" font-style="italic" fill="#C2185B">Shosho</text>
  <text x="140" y="96" font-family="Arial, Helvetica, sans-serif" font-size="13" fill="#B0909E" letter-spacing="0.18em">SMART BOOKING PLATFORM</text>
</svg>
