<svg width="400" height="84" viewBox="0 0 400 84" xmlns="http://www.w3.org/2000/svg">
  <rect width="400" height="84" rx="16" fill="#1C0A14"/>
  <rect x="18" y="18" width="48" height="48" rx="14" fill="#C2185B"/>
  <ellipse cx="42" cy="30" rx="6.5" ry="11" fill="white" opacity="0.9" transform="rotate(0 42 42)"/>
  <ellipse cx="42" cy="30" rx="6.5" ry="11" fill="white" opacity="0.9" transform="rotate(60 42 42)"/>
  <ellipse cx="42" cy="30" rx="6.5" ry="11" fill="white" opacity="0.9" transform="rotate(120 42 42)"/>
  <ellipse cx="42" cy="30" rx="6.5" ry="11" fill="white" opacity="0.9" transform="rotate(180 42 42)"/>
  <ellipse cx="42" cy="30" rx="6.5" ry="11" fill="white" opacity="0.9" transform="rotate(240 42 42)"/>
  <ellipse cx="42" cy="30" rx="6.5" ry="11" fill="white" opacity="0.9" transform="rotate(300 42 42)"/>
  <circle cx="42" cy="42" r="8" fill="white"/>
  <circle cx="42" cy="42" r="3.5" fill="#C2185B"/>
  <rect x="80" y="22" width="1" height="40" fill="#4A2035"/>
  <text x="96" y="43" font-family="Georgia, 'Times New Roman', serif" font-size="30" font-style="italic" fill="white">Shosho</text>
  <text x="97" y="62" font-family="Arial, Helvetica, sans-serif" font-size="11" fill="#C2185B" letter-spacing="0.14em">SMART BOOKING</text>
</svg>
